<svg class="logo" xmlns="http://www.w3.org/2000/svg" viewBox="0 0 401.7 614.7">
<path d="M401.7 306.8v-30c0-12.5-1.9-24.9-5.8-36.7 -3.8-11.5-9.4-22.4-16.7-32 -6.8-9-15-17-24.3-23.5 -9.5-6.7-20.1-11.9-31.2-15.4 -12.9-4.1-26.4-6.1-40-6 -11.7 0.1-23.4 1.7-34.7 5 -10.8 3.1-21.3 7.7-30.8 13.8 -9.4 6-18 13.3-25.1 21.9 -7.3 8.8-13.1 18.8-17.2 29.4 -4.3 11.1-6.8 22.8-7.6 34.6 -0.2 3-0.3 6-0.3 8.9v80.7h-66.2V0H0v39.4h10c2.1 0 4 0.4 5.1 2.4 1.1 2.1 1.7 4.6 2 6.9 1 6 1 12.2 1 18.3v364.2h149.9v70c0 11 1.5 22 4.5 32.6 2.9 10.2 7.3 19.9 12.9 28.8 5.6 8.8 12.5 16.9 20.4 23.7 8.1 7 17.2 12.9 26.9 17.4 11.8 5.4 24.5 8.9 37.4 10.3 13.3 1.5 26.8 0.9 39.8-1.7 12-2.4 23.8-6.5 34.6-12.4 10.4-5.6 20-12.8 28.1-21.4 8.4-8.9 15.1-19.3 19.9-30.6 5-11.8 7.8-24.4 8.8-37.1 0.2-3.2 0.4-6.5 0.4-9.7V357.5H285.7h-16.9v73.7l4 0h45.2v70c0 6.8-1 14-4.7 19.8 -3.6 5.6-9.6 9.3-15.8 11.3 -7.2 2.3-15.1 2.6-22.4 0.8 -6.5-1.6-13.1-4.9-17.3-10.3 -4.8-6-6-14.1-6-21.6v-70h0.2v-73.7h-0.2v-80.7c0-6.8 1-13.9 4.7-19.7 3.5-5.6 9.6-9.3 15.8-11.3 7.1-2.3 15-2.6 22.3-0.8 6.5 1.6 13.1 4.8 17.4 10.2 4.8 6 6 14.2 6 21.7v30H401.7z" />
</svg>